<svg height="480pt" viewBox="0 0 480.38429 480" width="480pt" xmlns="http://www.w3.org/2000/svg"><path d="m311.820312 12.136719c-20.539062 6.847656-39.203124 18.386719-54.511718 33.695312l-211.328125 211.328125c-15.3125 15.308594-26.847657 33.972656-33.695313 54.511719-8.640625 26.546875-2.550781 55.6875 16 76.550781l360.054688-360.03125c-20.847656-18.558594-49.972656-24.667968-76.519532-16.054687zm0 0" fill="#fdbb3d"/><path d="m168.890625 468.28125c20.542969-6.84375 39.203125-18.378906 54.511719-33.6875l211.335937-211.335938c15.316407-15.308593 26.851563-33.972656 33.699219-54.511718 8.636719-26.550782 2.546875-55.6875-16-76.554688l-360.097656 360.066406c20.859375 18.554688 50 24.65625 76.550781 16.023438zm0 0" fill="#f0b237"/><path d="m45.980469 257.160156c-15.3125 15.308594-26.847657 33.972656-33.695313 54.511719-8.640625 26.546875-2.550781 55.6875 16 76.550781l210.351563-210.328125c-58.023438 27.871094-118.476563 50.363281-180.601563 67.203125zm0 0" fill="#f0b237"/><path d="m21.59375 394.9375 373.488281-373.488281c8.488281-8.488281 20-13.257813 32-13.257813 24.996094 0 45.257813 20.261719 45.257813 45.257813 0 12-4.769532 23.511719-13.257813 32l-373.488281 373.488281c-8.484375 8.484375-19.996094 13.253906-32 13.253906-24.992188 0-45.253906-20.261718-45.253906-45.253906 0-12.003906 4.769531-23.515625 13.253906-32zm0 0" fill="#e94f4f"/><path d="m42.683594 426.535156-11.3125-11.3125c10.269531-9.800781 24.46875-14.351562 38.519531-12.34375 10.402344.296875 18.527344.546875 26.738281-7.664062 8.207032-8.207032 8-16.398438 7.671875-26.75-2.339843-14.085938 2.261719-28.433594 12.359375-38.527344 10.09375-10.097656 24.441406-14.699219 38.527344-12.359375 10.398438.316406 18.535156.550781 26.753906-7.671875 8.214844-8.226562 8-16.394531 7.671875-26.746094-2.347656-14.089844 2.253907-28.441406 12.351563-38.542968 10.101562-10.097657 24.453125-14.699219 38.542968-12.351563 10.34375.300781 18.535157.542969 26.75-7.679687 8.21875-8.226563 8-16.394532 7.664063-26.730469-2.339844-14.085938 2.261719-28.4375 12.359375-38.539063 10.097656-10.097656 24.449219-14.703125 38.539062-12.363281 10.351563.328125 18.535157.542969 26.757813-7.6875 8.226563-8.234375 8-16.417969 7.699219-26.777344-1.996094-14.070312 2.566406-28.28125 12.382812-38.558593 10.277344-9.816407 24.484375-14.378907 38.550782-12.386719 10.402343.3125 18.550781.546875 26.785156-7.695313l11.3125 11.3125c-10.292969 9.800782-24.496094 14.359375-38.570313 12.382813-10.398437-.3125-18.550781-.535157-26.78125 7.699219-8.234375 8.230468-8 16.421874-7.699219 26.78125 2.003907 14.074218-2.554687 28.285156-12.367187 38.570312-10.285156 9.792969-24.480469 14.347656-38.542969 12.367188-10.34375-.3125-18.527344-.542969-26.761718 7.6875-8.230469 8.230468-8 16.390624-7.671876 26.742187 2.34375 14.085937-2.257812 28.433594-12.351562 38.527344-10.097656 10.097656-24.445312 14.695312-38.527344 12.355469-10.359375-.289063-18.535156-.539063-26.757812 7.679687-8.226563 8.214844-8 16.398437-7.671875 26.75 2.339843 14.085937-2.261719 28.433594-12.355469 38.527344-10.09375 10.097656-24.441406 14.699219-38.527344 12.363281-10.335937-.304688-18.535156-.554688-26.75 7.671875-8.21875 8.222656-8 16.398437-7.671875 26.742187 1.992188 14.058594-2.5625 28.257813-12.359375 38.535157-10.273437 9.800781-24.46875 14.347656-38.523437 12.34375-10.335938-.292969-18.519531-.566407-26.734375 7.648437zm0 0" fill="#fdbb3d"/><path d="m427.082031.191406c-14.128906-.035156-27.6875 5.582032-37.65625 15.601563l-1.765625 1.757812c-22.480468-16.789062-51.703125-21.636719-78.402344-13.007812-21.695312 7.277343-41.414062 19.476562-57.605468 35.648437l-211.3125 211.3125c-16.164063 16.191406-28.359375 35.90625-35.625 57.601563-8.625 26.695312-3.777344 55.917969 13.007812 78.398437l-1.765625 1.761719c-13.667969 13.410156-19.082031 33.121094-14.183593 51.632813 4.894531 18.507812 19.351562 32.964843 37.859374 37.863281 18.511719 4.894531 38.226563-.519531 51.632813-14.183594l1.65625-1.648437c15.035156 11.140624 33.234375 17.1875 51.945313 17.261718 9.027343.007813 17.996093-1.4375 26.558593-4.285156 21.695313-7.265625 41.410157-19.460938 57.601563-35.625l211.359375-211.367188c16.167969-16.191406 28.359375-35.90625 35.625-57.601562 8.632812-26.699219 3.773437-55.929688-13.03125-78.398438l1.757812-1.761718c15.265625-15.226563 19.84375-38.152344 11.597657-58.074219-8.25-19.921875-27.691407-32.902344-49.253907-32.886719zm33.753907 166.023438c-6.476563 19.351562-17.347657 36.941406-31.761719 51.386718l-211.328125 211.328126c-14.441406 14.414062-32.03125 25.285156-51.382813 31.757812-20.953125 6.792969-43.878906 3.398438-61.96875-9.167969l347.265625-347.269531c12.570313 18.085938 15.964844 41.011719 9.175782 61.964844zm-431.785157 209.976562c-12.570312-18.085937-15.96875-41.011718-9.183593-61.96875 6.484374-19.347656 17.355468-36.933594 31.769531-51.382812l211.328125-211.351563c14.445312-14.414062 32.039062-25.285156 51.390625-31.761719 20.960937-6.792968 43.890625-3.398437 61.984375 9.179688l-112.9375 112.886719zm424.375-296.398437-373.484375 373.488281c-9.371094 9.605469-23.183594 13.425781-36.160156 10.007812-12.976562-3.417968-23.113281-13.550781-26.53125-26.527343-3.421875-12.976563.398438-26.789063 10-36.160157l373.488281-373.496093c14.550781-14.550781 38.140625-14.550781 52.6875 0 14.550781 14.546875 14.550781 38.136719 0 52.6875zm0 0"/><path d="m411.210938 61.542969c-14.066407-1.992188-28.273438 2.570312-38.550782 12.386719-9.816406 10.277343-14.378906 24.488281-12.382812 38.558593.300781 10.398438.542968 18.535157-7.699219 26.777344-8.238281 8.238281-16.40625 8-26.757813 7.6875-14.089843-2.339844-28.441406 2.265625-38.539062 12.363281-10.097656 10.101563-14.699219 24.453125-12.359375 38.539063.3125 10.335937.5625 18.511719-7.664063 26.730469-8.222656 8.214843-16.40625 8-26.75 7.679687-14.089843-2.347656-28.441406 2.253906-38.542968 12.351563-10.097656 10.101562-14.699219 24.453124-12.351563 38.542968.300781 10.351563.550781 18.527344-7.671875 26.746094-8.226562 8.214844-16.386718 8-26.753906 7.671875-14.078125-2.324219-28.414062 2.285156-38.5 12.378906s-14.683594 24.429688-12.347656 38.507813c.3125 10.351562.542968 18.527344-7.671875 26.75-8.214844 8.226562-16.351563 7.960937-26.738281 7.664062-14.050782-2.007812-28.25 2.542969-38.519532 12.34375l11.3125 11.3125c8.21875-8.214844 16.402344-8 26.738282-7.664062 14.050781 2.003906 28.246093-2.542969 38.519531-12.34375 9.800781-10.277344 14.351562-24.476563 12.359375-38.535156-.3125-10.34375-.542969-18.519532 7.671875-26.742188 8.214843-8.226562 16.414062-8 26.75-7.671875 14.085937 2.335937 28.433593-2.265625 38.527343-12.363281 10.09375-10.09375 14.695313-24.441406 12.355469-38.527344-.304687-10.351562-.546875-18.527344 7.671875-26.75 8.214844-8.226562 16.398438-8 26.757813-7.679688 14.085937 2.339844 28.433593-2.261718 38.527343-12.355468s14.695313-24.441406 12.355469-38.527344c-.304687-10.351562-.546875-18.519531 7.671875-26.742188 8.214844-8.222656 16.414063-8 26.757813-7.6875 14.046875 1.96875 28.226562-2.578124 38.503906-12.351562 9.8125-10.277344 14.378906-24.484375 12.386719-38.554688-.304688-10.359374-.539063-18.542968 7.695312-26.78125 8.230469-8.242187 16.390625-8 26.78125-7.699218 14.070313 1.972656 28.265625-2.585938 38.554688-12.382813l-11.3125-11.328125c-8.234375 8.242188-16.402344 8.007813-26.785156 7.695313zm0 0"/></svg>